<?xml version="1.0" standalone="no"?>
<!DOCTYPE svg PUBLIC "-//W3C//DTD SVG 20010904//EN"
 "http://www.w3.org/TR/2001/REC-SVG-20010904/DTD/svg10.dtd">
<svg version="1.0" xmlns="http://www.w3.org/2000/svg"
 width="172.000000pt" height="132.000000pt" viewBox="0 0 172.000000 132.000000"
 preserveAspectRatio="xMidYMid meet">
<metadata>
Created by potrace 1.16, written by Peter Selinger 2001-2019
</metadata>
<g transform="translate(0.000000,132.000000) scale(0.100000,-0.100000)"
fill="#000000" stroke="none">
<path d="M0 1310 c0 -6 52 -10 135 -10 l135 0 0 -245 0 -245 578 2 577 3 3
243 2 243 133 -3 132 -3 3 -632 2 -633 -22 -5 c-13 -3 -72 -5 -133 -3 l-110 3
-5 275 -5 275 -577 3 -578 2 -2 -277 -3 -278 -133 0 c-99 0 -132 -3 -132 -12
0 -10 179 -13 860 -13 l860 0 0 660 0 660 -860 0 c-567 0 -860 -3 -860 -10z"/>
</g>
</svg>
